# xmcd CD database file
#
# Track frame offsets:
#	150
#	12520
#	32960
#	52510
#	69902
#	88225
#	104687
#	122585
#	143705
#	163875
#	180347
#	199575
#
# Disc length: 2843 seconds
#
# Revision: 0
# Processed by: cddbd v1.5.1PL2 Copyright (c) Steve Scherf et al.
# Submitted via: CDex 1.51
#
DISCID=9d0b190c
DTITLE=倉本裕基 - LOVE POEM（ラヴ・ポエム）
DYEAR=1997
DGENRE=Instrumental
TTITLE0=微睡（まどろ）みから覚めて
TTITLE1=優しい想いは果てなく
TTITLE2=そしてどんな風（ふう）に愛は…
TTITLE3=心の絃（いと）をつま弾いて
TTITLE4=月の光がこぼれるように…
TTITLE5=一人森の中を彷徨（さまよ）って
TTITLE6=ささやき流れる小川は…
TTITLE7=静かな歌と共に
TTITLE8=花がふってくると思う
TTITLE9=星くずに照らされた小径
TTITLE10=光る朝まで愛を数えて…
TTITLE11=小箱の奏でるメロディー
EXTD=YEAR: 1997
EXTT0=
EXTT1=
EXTT2=
EXTT3=
EXTT4=
EXTT5=
EXTT6=
EXTT7=
EXTT8=
EXTT9=
EXTT10=
EXTT11=
PLAYORDER=
